<svg width="291" height="160" viewBox="0 0 291 160" fill="none" xmlns="http://www.w3.org/2000/svg">
<path d="M25.4077 0V11.5H84.9077L91.4077 16.5V27H118.408" stroke="#00FF66"/>
<path d="M34.9078 18H83.9078L88.9078 21V29.5H117.908" stroke="#00FF66"/>
<path d="M33.9078 8H100.908V23" stroke="#00FF66"/>
<path d="M33.9078 8V0" stroke="#00FF66"/>
<path d="M33.9078 21H83.9078V32L90.2464 34H121.908" stroke="#00FF66"/>
<path d="M104.908 21V4.5H38.4078V0" stroke="#00FF66"/>
<path d="M26.4077 24H62.9077V31" stroke="#00FF66"/>
<path d="M43.9078 27H59.9078V32" stroke="#00FF66"/>
<path d="M29.4078 31H55.9078V36" stroke="#00FF66"/>
<path d="M78.4078 29V22.5H69.4078V33.5" stroke="#00FF66"/>
<path d="M75.4078 30.5V25H72.9078V35.5" stroke="#00FF66"/>
<path d="M66.4078 20.5V31.5" stroke="#00FF66"/>
<path d="M90.4078 11.5L96.4078 16V24.5H117.908" stroke="#00FF66"/>
<path d="M33.9077 21L30.9077 19H25.9077" stroke="#00FF66"/>
<path d="M44.4077 27H25.9077" stroke="#00FF66"/>
<path d="M104.272 74.4133L104.071 62.9151L44.5802 63.9535L37.9939 59.0677L34.6582 48.0195L8.15824 48.0195M94.4592 56.5819L45.4667 57.4371L40.4151 54.5248L39.0811 43.4879L8.15824 43.4879M28.6437 56.5819L28.6437 67.7322L95.6335 66.5629L95.7732 74.5618M8.15824 38.9512L39.0811 38.9512L45.4142 38.9512L45.4142 54.4375L95.4066 53.5649L98.4411 55.5123L103.44 55.425M24.6582 61.4189L24.7054 71.3015L91.1952 70.1409L91.2738 74.6402M102.853 50.4345L66.3587 51.0715L66.2366 44.0725M85.3035 47.7403L69.3059 48.0195L69.2187 43.0203M99.7315 43.4879L73.2355 43.9504L73.1483 38.9512M50.8873 38.9512L50.8873 52.8418L59.8859 52.6847L59.6939 41.6864M53.7472 44.7907L53.8432 50.2898L56.3429 50.2462L56.1596 39.7478M62.9203 54.6321L62.7284 43.6337M39.0811 64.0496L33.0035 59.655L32.8552 51.1562L11.3584 51.5315M84.8036 47.749L103.301 47.4261" stroke="#00FF66"/>
<path d="M103.408 37V48.5H162.908L169.408 53.5V64H196.408" stroke="#00FF66"/>
<path d="M112.908 55H161.908L166.908 58V66.5H195.908" stroke="#00FF66"/>
<path d="M111.908 45H178.908V60" stroke="#00FF66"/>
<path d="M111.908 45V37" stroke="#00FF66"/>
<path d="M111.908 58H161.908V69L168.246 71H199.908" stroke="#00FF66"/>
<path d="M182.908 58V41.5H116.408V37" stroke="#00FF66"/>
<path d="M104.408 61H140.908V68" stroke="#00FF66"/>
<path d="M121.908 64H137.908V69" stroke="#00FF66"/>
<path d="M107.408 68H133.908V73" stroke="#00FF66"/>
<path d="M156.408 66V59.5H147.408V70.5" stroke="#00FF66"/>
<path d="M153.408 67.5V62H150.908V72.5" stroke="#00FF66"/>
<path d="M144.408 57.5V68.5" stroke="#00FF66"/>
<path d="M168.408 48.5L174.408 53V61.5H195.908" stroke="#00FF66"/>
<path d="M111.908 58L108.908 56H103.908" stroke="#00FF66"/>
<path d="M122.408 64H103.908" stroke="#00FF66"/>
<path d="M182.272 111.413L182.071 99.9151L122.58 100.953L115.994 96.0677L112.658 85.0195L86.1582 85.0195M172.459 93.5819L123.467 94.4371L118.415 91.5248L117.081 80.4879L86.1582 80.4879M106.644 93.5819L106.644 104.732L173.634 103.563L173.773 111.562M86.1582 75.9512L117.081 75.9512L123.414 75.9512L123.414 91.4375L173.407 90.5649L176.441 92.5123L181.44 92.425M102.658 98.4189L102.705 108.302L169.195 107.141L169.274 111.64M180.853 87.4345L144.359 88.0715L144.237 81.0725M163.303 84.7403L147.306 85.0195L147.219 80.0203M177.731 80.4879L151.236 80.9504L151.148 75.9512M128.887 75.9512L128.887 89.8418L137.886 89.6847L137.694 78.6864M131.747 81.7907L131.843 87.2898L134.343 87.2462L134.16 76.7478M140.92 91.6321L140.728 80.6337M117.081 101.05L111.004 96.655L110.855 88.1562L89.3584 88.5315M162.804 84.749L181.301 84.4261" stroke="#00FF66"/>
<path d="M17.4078 48V59.5H76.9078L83.4078 64.5V75H110.408" stroke="#00FF66"/>
<path d="M26.9078 66H75.9078L80.9078 69V77.5H109.908" stroke="#00FF66"/>
<path d="M25.9078 56H92.9078V71" stroke="#00FF66"/>
<path d="M25.9078 56V48" stroke="#00FF66"/>
<path d="M25.9078 69H75.9078V80L82.2464 82H113.908" stroke="#00FF66"/>
<path d="M96.9078 69V52.5H30.4078V48" stroke="#00FF66"/>
<path d="M18.4078 72H54.9078V79" stroke="#00FF66"/>
<path d="M35.9078 75H51.9078V80" stroke="#00FF66"/>
<path d="M21.4078 79H47.9078V84" stroke="#00FF66"/>
<path d="M70.4078 77V70.5H61.4078V81.5" stroke="#00FF66"/>
<path d="M67.4078 78.5V73H64.9078V83.5" stroke="#00FF66"/>
<path d="M58.4078 68.5V79.5" stroke="#00FF66"/>
<path d="M82.4078 59.5L88.4078 64V72.5H109.908" stroke="#00FF66"/>
<path d="M25.9078 69L22.9078 67H17.9078" stroke="#00FF66"/>
<path d="M36.4078 75H17.9078" stroke="#00FF66"/>
<path d="M96.2718 122.413L96.0711 110.915L36.5802 111.953L29.9939 107.068L26.6582 96.0195L0.158236 96.0195M86.4592 104.582L37.4667 105.437L32.4151 102.525L31.0811 91.4879L0.158235 91.4879M20.6437 104.582L20.6437 115.732L87.6335 114.563L87.7732 122.562M0.158236 86.9512L31.0811 86.9512L37.4142 86.9512L37.4142 102.437L87.4066 101.565L90.4411 103.512L95.4404 103.425M16.6582 109.419L16.7054 119.302L83.1952 118.141L83.2738 122.64M94.8532 98.4345L58.3587 99.0715L58.2366 92.0725M77.3035 95.7403L61.3059 96.0195L61.2187 91.0203M91.7315 91.4879L65.2355 91.9504L65.1483 86.9512M42.8873 86.9512L42.8873 100.842L51.8859 100.685L51.6939 89.6864M45.7472 92.7907L45.8432 98.2898L48.3429 98.2462L48.1596 87.7478M54.9203 102.632L54.7284 91.6337M31.0811 112.05L25.0035 107.655L24.8552 99.1562L3.35844 99.5315M76.8036 95.749L95.3008 95.4261" stroke="#00FF66"/>
<path d="M95.4078 85V96.5H154.908L161.408 101.5V112H188.408" stroke="#00FF66"/>
<path d="M104.908 103H153.908L158.908 106V114.5H187.908" stroke="#00FF66"/>
<path d="M103.908 93H170.908V108" stroke="#00FF66"/>
<path d="M103.908 93V85" stroke="#00FF66"/>
<path d="M103.908 106H153.908V117L160.246 119H191.908" stroke="#00FF66"/>
<path d="M174.908 106V89.5H108.408V85" stroke="#00FF66"/>
<path d="M96.4078 109H132.908V116" stroke="#00FF66"/>
<path d="M113.908 112H129.908V117" stroke="#00FF66"/>
<path d="M99.4078 116H125.908V121" stroke="#00FF66"/>
<path d="M148.408 114V107.5H139.408V118.5" stroke="#00FF66"/>
<path d="M145.408 115.5V110H142.908V120.5" stroke="#00FF66"/>
<path d="M136.408 105.5V116.5" stroke="#00FF66"/>
<path d="M160.408 96.5L166.408 101V109.5H187.908" stroke="#00FF66"/>
<path d="M103.908 106L100.908 104H95.9078" stroke="#00FF66"/>
<path d="M114.408 112H95.9078" stroke="#00FF66"/>
<path d="M174.272 159.413L174.071 147.915L114.58 148.953L107.994 144.068L104.658 133.02L78.1582 133.02M164.459 141.582L115.467 142.437L110.415 139.525L109.081 128.488L78.1582 128.488M98.6437 141.582L98.6437 152.732L165.634 151.563L165.773 159.562M78.1582 123.951L109.081 123.951L115.414 123.951L115.414 139.437L165.407 138.565L168.441 140.512L173.44 140.425M94.6582 146.419L94.7054 156.302L161.195 155.141L161.274 159.64M172.853 135.434L136.359 136.071L136.237 129.073M155.303 132.74L139.306 133.02L139.219 128.02M169.731 128.488L143.236 128.95L143.148 123.951M120.887 123.951L120.887 137.842L129.886 137.685L129.694 126.686M123.747 129.791L123.843 135.29L126.343 135.246L126.16 124.748M132.92 139.632L132.728 128.634M109.081 149.05L103.004 144.655L102.855 136.156L81.3584 136.531M154.804 132.749L173.301 132.426" stroke="#00FF66"/>
<path d="M116.408 5V16.5H175.908L182.408 21.5V32H209.408" stroke="#00FF66"/>
<path d="M125.908 23H174.908L179.908 26V34.5H208.908" stroke="#00FF66"/>
<path d="M124.908 13H191.908V28" stroke="#00FF66"/>
<path d="M124.908 13V5" stroke="#00FF66"/>
<path d="M124.908 26H174.908V37L181.246 39H212.908" stroke="#00FF66"/>
<path d="M195.908 26V9.5H129.408V5" stroke="#00FF66"/>
<path d="M117.408 29H153.908V36" stroke="#00FF66"/>
<path d="M134.908 32H150.908V37" stroke="#00FF66"/>
<path d="M120.408 36H146.908V41" stroke="#00FF66"/>
<path d="M169.408 34V27.5H160.408V38.5" stroke="#00FF66"/>
<path d="M166.408 35.5V30H163.908V40.5" stroke="#00FF66"/>
<path d="M157.408 25.5V36.5" stroke="#00FF66"/>
<path d="M181.408 16.5L187.408 21V29.5H208.908" stroke="#00FF66"/>
<path d="M124.908 26L121.908 24H116.908" stroke="#00FF66"/>
<path d="M135.408 32H116.908" stroke="#00FF66"/>
<path d="M195.272 79.4133L195.071 67.9151L135.58 68.9535L128.994 64.0677L125.658 53.0195L99.1582 53.0195M185.459 61.5819L136.467 62.4371L131.415 59.5248L130.081 48.4879L99.1582 48.4879M119.644 61.5819L119.644 72.7322L186.634 71.5629L186.773 79.5618M99.1582 43.9512L130.081 43.9512L136.414 43.9512L136.414 59.4375L186.407 58.5649L189.441 60.5123L194.44 60.425M115.658 66.4189L115.705 76.3015L182.195 75.1409L182.274 79.6402M193.853 55.4345L157.359 56.0715L157.237 49.0725M176.303 52.7403L160.306 53.0195L160.219 48.0203M190.731 48.4879L164.236 48.9504L164.148 43.9512M141.887 43.9512L141.887 57.8418L150.886 57.6847L150.694 46.6864M144.747 49.7907L144.843 55.2898L147.343 55.2462L147.16 44.7478M153.92 59.6321L153.728 48.6337M130.081 69.0496L124.004 64.655L123.855 56.1562L102.358 56.5315M175.804 52.749L194.301 52.4261" stroke="#00FF66"/>
<path d="M194.408 42V53.5H253.908L260.408 58.5V69H287.408" stroke="#00FF66"/>
<path d="M203.908 60H252.908L257.908 63V71.5H286.908" stroke="#00FF66"/>
<path d="M202.908 50H269.908V65" stroke="#00FF66"/>
<path d="M202.908 50V42" stroke="#00FF66"/>
<path d="M202.908 63H252.908V74L259.246 76H290.908" stroke="#00FF66"/>
<path d="M273.908 63V46.5H207.408V42" stroke="#00FF66"/>
<path d="M195.408 66H231.908V73" stroke="#00FF66"/>
<path d="M212.908 69H228.908V74" stroke="#00FF66"/>
<path d="M198.408 73H224.908V78" stroke="#00FF66"/>
<path d="M247.408 71V64.5H238.408V75.5" stroke="#00FF66"/>
<path d="M244.408 72.5V67H241.908V77.5" stroke="#00FF66"/>
<path d="M235.408 62.5V73.5" stroke="#00FF66"/>
<path d="M259.408 53.5L265.408 58V66.5H286.908" stroke="#00FF66"/>
<path d="M202.908 63L199.908 61H194.908" stroke="#00FF66"/>
<path d="M213.408 69H194.908" stroke="#00FF66"/>
<path d="M273.272 116.413L273.071 104.915L213.58 105.953L206.994 101.068L203.658 90.0195L177.158 90.0195M263.459 98.5819L214.467 99.4371L209.415 96.5248L208.081 85.4879L177.158 85.4879M197.644 98.5819L197.644 109.732L264.634 108.563L264.773 116.562M177.158 80.9512L208.081 80.9512L214.414 80.9512L214.414 96.4375L264.407 95.5649L267.441 97.5123L272.44 97.425M193.658 103.419L193.705 113.302L260.195 112.141L260.274 116.64M271.853 92.4345L235.359 93.0715L235.237 86.0725M254.303 89.7403L238.306 90.0195L238.219 85.0203M268.731 85.4879L242.236 85.9504L242.148 80.9512M219.887 80.9512L219.887 94.8418L228.886 94.6847L228.694 83.6864M222.747 86.7907L222.843 92.2898L225.343 92.2462L225.16 81.7478M231.92 96.6321L231.728 85.6337M208.081 106.05L202.004 101.655L201.855 93.1562L180.358 93.5315M253.804 89.749L272.301 89.4261" stroke="#00FF66"/>
</svg>
